<?xml version="1.0" encoding="UTF-8" standalone="no"?>
<!DOCTYPE svg PUBLIC "-//W3C//DTD SVG 1.1//EN" "http://www.w3.org/Graphics/SVG/1.1/DTD/svg11.dtd">
<svg width="100%" height="100%" viewBox="0 0 240 186" version="1.1" xmlns="http://www.w3.org/2000/svg" xmlns:xlink="http://www.w3.org/1999/xlink" xml:space="preserve" xmlns:serif="http://www.serif.com/" style="fill-rule:evenodd;clip-rule:evenodd;stroke-linejoin:round;stroke-miterlimit:2;">
    <g transform="matrix(1,0,0,1,-550.476579,0)">
        <g id="_11:30-PM-EST" serif:id="11:30 PM EST" transform="matrix(1,0,0,0.93,550.476579,0)">
            <rect x="0" y="0" width="240" height="200" style="fill:none;"/>
            <g transform="matrix(1,0,0,1.075269,9.787606,-6.515586)">
                <text x="52.558px" y="94.973px" style="font-family:'Satoshi-Regular', 'Satoshi';font-size:12.208px;fill:rgb(248,248,248);">O<tspan x="62.252px 71.262px 78.587px 82.274px 85.582px 94.592px 101.526px 104.835px 113.845px 117.153px 124.014px 131.339px 135.026px 140.813px 150.506px 160.2px " y="94.973px 94.973px 94.973px 94.973px 94.973px 94.973px 94.973px 94.973px 94.973px 94.973px 94.973px 94.973px 94.973px 94.973px 94.973px 94.973px ">NE INFINITE LOOP</tspan></text>
                <g transform="matrix(27.984,0,0,27.984,122.146063,114.984)">
                </g>
                <text x="98.108px" y="114.984px" style="font-family:'Satoshi-Regular', 'Satoshi';font-size:27.984px;fill:rgb(248,248,248);">∞</text>
            </g>
        </g>
    </g>
</svg>
