<?xml version="1.0" encoding="UTF-8" standalone="no"?>
<!DOCTYPE svg PUBLIC "-//W3C//DTD SVG 1.1//EN" "http://www.w3.org/Graphics/SVG/1.1/DTD/svg11.dtd">
<svg width="100%" height="100%" viewBox="0 0 20 20" version="1.1" xmlns="http://www.w3.org/2000/svg" xmlns:xlink="http://www.w3.org/1999/xlink" xml:space="preserve" xmlns:serif="http://www.serif.com/" style="fill-rule:evenodd;clip-rule:evenodd;stroke-linejoin:round;stroke-miterlimit:2;">
    <g>
        <path d="M4.369,10.023C4.369,9.647 4.502,9.326 4.769,9.062C5.036,8.797 5.355,8.664 5.728,8.664C6.104,8.664 6.425,8.797 6.692,9.062C6.959,9.326 7.092,9.647 7.092,10.023C7.092,10.399 6.959,10.72 6.692,10.987C6.425,11.254 6.104,11.387 5.728,11.387C5.355,11.387 5.036,11.254 4.769,10.987C4.502,10.72 4.369,10.399 4.369,10.023Z" style="fill:rgb(234,234,234);fill-rule:nonzero;"/>
        <path d="M8.66,10.023C8.66,9.647 8.793,9.326 9.06,9.062C9.327,8.797 9.646,8.664 10.019,8.664C10.395,8.664 10.716,8.797 10.983,9.062C11.25,9.326 11.383,9.647 11.383,10.023C11.383,10.399 11.25,10.72 10.983,10.987C10.716,11.254 10.395,11.387 10.019,11.387C9.646,11.387 9.327,11.254 9.06,10.987C8.793,10.72 8.66,10.399 8.66,10.023Z" style="fill:rgb(234,234,234);fill-rule:nonzero;"/>
        <path d="M12.951,10.023C12.951,9.647 13.084,9.326 13.351,9.062C13.618,8.797 13.937,8.664 14.31,8.664C14.686,8.664 15.007,8.797 15.274,9.062C15.541,9.326 15.674,9.647 15.674,10.023C15.674,10.399 15.541,10.72 15.274,10.987C15.007,11.254 14.686,11.387 14.31,11.387C13.937,11.387 13.618,11.254 13.351,10.987C13.084,10.72 12.951,10.399 12.951,10.023Z" style="fill:rgb(234,234,234);fill-rule:nonzero;"/>
    </g>
</svg>
