<svg width="40" height="40" viewBox="0 0 512 512" xmlns="http://www.w3.org/2000/svg" xml:space="preserve" style="fill-rule:evenodd;clip-rule:evenodd;stroke-linejoin:round;stroke-miterlimit:2"><ellipse cx="269.189" cy="300.202" rx="197.776" ry="200.573" style="fill:red" transform="matrix(1.16799 0 0 1.1517 -58.41 -89.743)"/><path d="M516.678 1805.78c-27.58.04-47.838.06-60.773.05-3.026 0-5.706.07-8.04.2-2.801.16-5.339-.45-7.952-.17-2.559.28-5.119.3-7.678.05-3.888-.38-9.027 1.42-10.528-3.3-.333-1.04-.242-2.51.275-4.42 2.601-9.59 9.595-15.82 20.982-18.68 15.629-3.92 32.222-2.11 47.414 2.51h.021c.482.14 1.011-.1 1.173-.53.002 0 .004-.01.006-.01 2.538-7.33 6.039-14.99 11.378-20.83 9.091-9.93 22.157-12.77 36.586-14.74a1327.08 1327.08 0 0 1 25.783-3.23c.467-.05.654-.28.563-.68-1.651-7.88-4.185-15.73-7.603-23.55-.194-.45-.689-.76-1.239-.76-.198 0-.395.04-.574.12-5.201 2.24-10.578 4.94-15.704 6.55-26.696 8.43-56.705 6.6-81.024-6.66-.335-.18-.749-.2-1.101-.06a38.822 38.822 0 0 1-7.552 2.36c-5.868 1.18-12.041 2.38-18.518 3.61-.525.1-.659.36-.4.77 3.109 4.94 4.38 9.74 3.813 14.38-.541 4.34-2.763 7.3-6.664 8.87-2.038.83-4.051.48-6.427.11-6.214-.98-7.115-4.81-8.928-9.34-1.538-3.84-5.389-6.09-9.953-5.3-7.985 1.37-12.92 5.44-14.804 12.2-.938 3.36-.5 7.24-.35 10.83.162 3.72-3.364 4.92-6.777 5.68-1.309.3-2.605.31-3.889.05-6.877-1.41-10.215-6.64-10.991-12.42-1.233-9.3 1.338-17.65 7.715-25.07a.641.641 0 0 0 .162-.42c0-.33-.285-.62-.662-.66-4.876-.64-9.228-1.85-13.867 1.24-3.338 2.23-6.639 7.03-12.128 7.89-2.401.38-4.527.12-6.377-.77-10.978-5.28-2.763-19.34 3.764-24.62 6.01-4.85 13.262-7.94 21.756-9.27a2.44 2.44 0 0 1 1.2.14c.967.36 1.576.1 1.826-.81 2.326-8.62 7.811-13.86 16.455-15.7 7.61-1.63 14.162-.27 19.656 4.05 6.264 4.95 8.052 12.25 11.116 18.78.319.69 1.118 1.12 1.963 1.05 6.96-.54 13.933-1.76 20.918-3.64.367-.1.434-.28.2-.55-13.112-14.88-18.105-31.16-14.979-48.84 1.788-10.15 6.777-21.11 14.229-29.54 1.884-2.13 3.205-4.28 3.964-6.44 3.884-11.14 7.456-23.04 10.716-35.7.662-2.59 2.763-8.37 7.239-6.37 1.267.57 2.072 1.33 2.413 2.27 2.626 7.31 5.31 14.48 8.053 21.52.125.34.367.42.725.25.692-.33 1.43-.61 2.213-.83 9.428-2.65 16.093-4.27 19.994-4.87 1.567-.24 4.901-.53 10.003-.88 16.767-1.15 32.822 1.69 47.476 8.84.784.38 1.355.21 1.713-.51a691.034 691.034 0 0 1 9.653-18.8c.675-1.27 1.38-2.23 2.113-2.88 1.168-1.02 3.062-1.06 4.289-.1a9.118 9.118 0 0 1 1.777 1.89c.458.65.837 1.37 1.137 2.16 5.439 14.29 10.053 28.09 17.38 42.51 4.234 8.35 7.098 14.74 8.59 19.17 2.951 8.77 5.081 17.04 6.389 24.8.134.82.638 1.08 1.513.77a909.848 909.848 0 0 1 29.034-9.69c2.692-.84 5.81-1.46 9.353-1.86 19.981-2.26 35.298 4.93 43.113 21.82 3.117 6.74 6.118 14.05 9.002 21.94.338.92 1.477 1.44 2.526 1.15 3.539-1 9.29-3.08 12.904-2.72 8.911.89 14.85 4.64 17.818 11.28.983 2.2.942 4.58-.125 7.13-1.401 3.36-4.197 5.03-8.39 4.99-5.365-.05-7.49-2.63-11.541-4.04-.742-.26-1.542-.28-2.401-.06-.7.18-.829.52-.388 1.03 5.31 6.2 6.886 12.95 4.727 20.26-.159.55.004.63.487.27.667-.5 1.442-.78 2.326-.83a90.294 90.294 0 0 0 14.429-2.09c12.479-2.87 23.645-9.59 36.199-13.1 16.817-4.69 37.598-2.78 53.028 5.53 8.252 4.45 14.754 14.33 7.127 21.99-1.15 1.16-2.471 1.83-3.964 2.03-5.214.69-8.952.39-13.429-2.74-3.651-2.54-7.652-5.34-11.703-6.9-14.754-5.68-28.696-.25-42.375 5.04-12.741 4.93-25.67 7.54-39.812 8.17-6.252.27-12.37.64-18.356 1.1-8.089.63-16.054 1.26-24.557 2.52-10.036 1.47-20.31 2.89-30.822 4.25-.45.06-.7.29-.75.68l-1.825 15.76c-.134 1.18.454 1.63 1.763 1.35 9.394-2.08 17.922-3.82 25.582-5.22 19.031-3.46 46.489-2.01 50.678 19.44.756 3.9-.668 6.39-4.271 7.47H607.118s.736-7.56.77-7.89c1.375-12.43 3.063-24.28 5.064-35.56a.827.827 0 0 0 .012-.14c0-.51-.474-.92-1.05-.92h-.138c-12.429 1.48-26.332 2.95-41.707 4.42-1.308.13-2.627.25-3.956.38-11.17 1.05-19.418 2.26-24.745 3.63-6.652 1.71-14.029 4.23-17.118 9.07-1.317 2.09-2.446 4.92-3.388 8.49a333.63 333.63 0 0 0-3.001 12.33m-63.807-120.59 1.513-1.7c.25-.28.296-.59.138-.92-1.238-2.56-2.163-5.36-3.501-7.76a1161.06 1161.06 0 0 1-13.854-25.63.232.232 0 0 0-.194-.11.23.23 0 0 0-.194.11c-5.627 11.29-6.298 22.69-2.013 34.19 2.226 5.98 5.706 10.92 10.441 14.83 3.876 3.19 8.777 5.13 13.666 3.04.575-.24.892-.64.95-1.2.309-3.06-.145-5.96-1.362-8.69-.151-.35-.43-.57-.838-.65-2.618-.61-4.285-2.08-5.002-4.42-.116-.4-.033-.76.25-1.09m3.285-44.75c.293.09.757-.45 1.027-1.19.27-.73.25-1.41-.044-1.49-.293-.09-.757.45-1.027 1.19-.27.73-.25 1.41.044 1.49m-13.463 152.51c.884-.55.788-.79-.287-.71-4.927.34-13.029 7.24-12.166 11.82.341 1.82.883 1.86 1.625.14 1.776-4.13 5.385-7.88 10.828-11.25m56.205-104.73c-1.751 2.51-6.127 1.35-6.815-1.55-.064-.25-.319-.43-.61-.43a.673.673 0 0 0-.39.13c-5.402 3.9-10.737 8.33-16.005 13.3-.292.28-.288.55.012.82 8.928 8.34 26.383 9.4 37.474 6.35 7.878-2.17 14.775-6.14 20.694-11.9 10.528-10.25 15.079-24.18 12.516-38.13-.095-.54-.628-.94-1.248-.94-.164 0-.326.03-.477.08-2.564.9-5.402.68-7.903 1.61-10.303 3.85-19.701 9-28.196 15.45a821.568 821.568 0 0 0-9.177 7.03c-.611.47-.673 1.31-.138 1.85 1.826 1.86 1.913 3.97.263 6.33m-116.448 10.94 16.955-.04c.083 0 .15-.06.15-.14v-.08c-.01-2.55-3.817-4.65-8.433-4.63h-.432c-4.611.01-8.396 2.13-8.39 4.68v.08c0 .07.068.13.15.13m108.319-87c-.188-.2-.721-.09-1.18.25-.459.33-.682.77-.494.97.189.2.722.09 1.181-.24.459-.34.682-.78.493-.98m-20.081 12.72c-.366-.31-1.035-.22-1.481.19-.445.41-.51 1-.143 1.31.367.31 1.036.23 1.481-.18.446-.41.51-1.01.143-1.32m-105.893 88.63c.025.12.075.31.15.55.142.47.417.54.825.21l.576-.45c.366-.3.796-.45 1.287-.45 2.309-.05 4.427.1 6.352.46 1.843.34 1.984.04.425-.9-3.075-1.82-6.714-2.24-10.915-1.25-1.384.32-2.73.69-4.039 1.09-2.963.91-5.164 3.02-7.24 4.98-.308.29-.241.43.2.44.484.01.767-.18.851-.58.068-.33.356-.59.725-.65a5.616 5.616 0 0 0 2.263-.95c.325-.23.646-.22.963.02.091.08.196.13.312.18.392.13.746.08 1.063-.17 1.234-.94 2.651-1.56 4.251-1.87.376-.07.672-.25.888-.53.142-.18.313-.3.513-.38.3-.12.483-.04.55.25m120.161-99.88c-.559.24-.955.59-1.188 1.07-.242.51-.087.63.463.36l2.613-1.25a.736.736 0 0 0 .4-.48.498.498 0 0 0-.075-.44c-.2-.25-.446-.29-.738-.12l-1.05.64a2.99 2.99 0 0 1-.425.22m209.71 131.65c.858-.13 1.068-2.67.465-5.63-.602-2.95-1.804-5.26-2.661-5.13-.857.14-1.067 2.68-.465 5.63.603 2.95 1.804 5.27 2.661 5.13m-217.25-125.69.65-.97c.234-.33.146-.42-.262-.26-1 .39-1.434 1.05-1.301 1.98.059.43.225.46.501.1.175-.23.304-.49.387-.78 0-.02.009-.05.025-.07m187.144 118.41c-4.027 1.57-8.415-1.54-9.828-4.62-1.951-4.24.362-9.77 3.976-12.69 4.96-4.02 10.878-5.89 17.755-5.61.044.01.088.01.132 0 .402-.04.693-.36.645-.71a.422.422 0 0 0-.027-.11c-3.613-10.52-11.266-27.5-26.733-26.8-3.651.17-7.539.93-11.666 2.28a276.6 276.6 0 0 0-16.83 6.13c-.337.13-.554.43-.554.76 0 .15.049.3.142.44 7.477 10.76 12.745 22.33 15.804 34.7 1.192 4.83 2.243 12.52 3.151 23.09.034.36.255.51.663.43 1.917-.36 3.872-.68 5.864-.97 4.414-.65 8.991-1.94 13.379-2.52 5.464-.71 10.641-2.39 16.493-2.45.313-.01.569-.23.569-.51a.48.48 0 0 0-.119-.31c-3.664-4.19-3.226-10.09-2.176-14.99.434-1.99-.296-2.4-2.188-1.24-2.988 1.85-4.764 4.25-8.452 5.7m-203.749-102.13 1.626.59a.31.31 0 0 0 .387-.14l.101-.2c1.117-2.36 1.667-4.45 1.218-4.61h-.006l-.525-.2h-.006c-.45-.17-1.739 1.64-2.857 4.01l-.088.21c-.061.13.005.28.15.34m-.262-6.68c1.108.35 1.904-.23 2.388-1.75 1.092-1.03 1.767-2.16 2.025-3.39.075-.37.28-.67.613-.91.675-.48 1.663-.87 2.964-1.19.469-.12.768-.53.687-.95-.225-1.24.45-1.88 2.026-1.92.967-.04 1.65-.37 2.05-.99.125-.19.276-.35.451-.49 3.159-2.52 6.577-4.98 10.253-7.37 2.1-1.37 1.875-1.82-.676-1.34-5.693 1.07-10.94 2.84-15.742 5.32-4.951 2.56-9.965 6.51-14.679 9.99-2.026 1.5-2.609 3.28-1.751 5.33.217.53.05.65-.5.37a3.782 3.782 0 0 1-.813-.53c-.433-.38-.85-.37-1.25.03a31.105 31.105 0 0 0-5.339 6.87c-.767 1.32-1.726 2.58-2.876 3.79a.929.929 0 0 0-.274.65c0 .42.308.8.762.93 2.676.81 3.626 3.91 4.514 5.98.093.22.338.38.611.38.14 0 .277-.04.389-.12l1.75-1.16c.451-.29.53-.65.238-1.08-.383-.55-.296-1.06.263-1.5.227-.19.385-.44.45-.71.35-1.51 1.033-2.62 2.05-3.35 2.626-1.9 4.002-5.34 5.464-7.96.175-.32.499-.56.888-.66 1.484-.39 2.505-1.14 3.064-2.27" style="fill:#fff" transform="matrix(-.83381 .01338 .01683 1.04885 710.991 -1531.12)"/></svg>